<svg xmlns="http://www.w3.org/2000/svg" viewBox="0 0 121.73 124.46"><path d="M63.55,125.73c11.14,0,30.52-11,36.51-14.6a3.11,3.11,0,0,0,1.5-3.1,29.1,29.1,0,0,1-.37-6.07c.12-2.66,3.86-4.24,6-4.36a1.21,1.21,0,0,0,1.13-1.44l-4-20.85a.94.94,0,0,1,.65-1.09c2.52-.71,6.41-4.77,6.28-9.64a11.05,11.05,0,0,0-4-8.26l-.11-6.94,16.19,7.07a.65.65,0,0,0,.9-.52,35.62,35.62,0,0,0,.18-3.61c0-13.62-8.58-24.67-17.94-24.67a18.55,18.55,0,0,1-2.42-.13A46.46,46.46,0,0,0,64.33,2.29l-.83,0-.83,0C44.59,2.9,31.3,13.55,25,28.52a11.92,11.92,0,0,0-4.42-.87c-9.36,0-16.94,11.05-16.94,24.67a35.62,35.62,0,0,0,.18,3.61.65.65,0,0,0,.9.52l16.19-7.07.65,6.28s-5.63,3.48-5.78,8.92c-.13,4.87,3.76,8.93,6.28,9.64a.94.94,0,0,1,.65,1.09l-4,20.85a1.21,1.21,0,0,0,1.13,1.44c2.1.12,5.84.7,6,3.36a40.34,40.34,0,0,1-.37,7.07,3.11,3.11,0,0,0,1.5,3.1c6,3.58,25.37,14.6,36.51,14.6Z" transform="translate(-3.14 -1.77)" style="fill:#1e1e1c;stroke:#666;stroke-miterlimit:10"/><path d="M99.78,65.58c0,22.45-14,10.11-36.33,10.11S26.12,87.58,26.12,65.58c0-12.95,15.06-38.45,37.33-38.45S99.78,52.63,99.78,65.58Z" transform="translate(-3.14 -1.77)" style="fill:#facbbd"/><path d="M44.52,42.61C48.41,48,51.19,60.8,64.9,62.25c0,0-5.71-13.71-3.21-19.94.14-.35.46-.56.76-.33.89.72,1.47,1,2.31,1.8,4.35,4.15,19.37,16.87,36.8,12.13,3.82-1-7.9-32.44-37.56-31.88S26.45,53.14,26.45,53.14s15.22,8.4,16.74-10.26C43.27,42,44,41.86,44.52,42.61Z" transform="translate(-3.14 -1.77)" style="fill:#ea5451"/><path d="M67.25,64l-2.51-.27C53.32,62.53,49,54.06,45.79,47.87c-.47-.91-.92-1.8-1.37-2.6-.79,5-2.78,8.42-5.91,10.1-5.57,3-12.49-.76-12.78-.92l-1-.57L25,52.74c.08-.3,8.53-29.64,39-30.21C89.09,22,102.35,43.86,103.66,53c.47,3.24-.87,4.11-1.7,4.33C83.8,62.3,68.1,49,63.72,44.87a8.37,8.37,0,0,0-1-.81c-1,5.06,2.14,14.24,3.54,17.61ZM43.78,40.61a2.44,2.44,0,0,1,2,1.12h0a38.22,38.22,0,0,1,2.72,4.77c2.75,5.36,6.12,11.92,14.1,13.83-1.56-4.39-4.3-13.49-2.27-18.58a2.11,2.11,0,0,1,1.42-1.3,1.88,1.88,0,0,1,1.67.36c.32.26.59.45.86.64a11.78,11.78,0,0,1,1.55,1.25c4.06,3.87,18.5,16.09,35,11.87.15-1.35-1-6.24-5.1-12.22C91.25,35.93,81.26,25.24,64,25.53,39.24,26,30.18,47.05,28.29,52.34c1.88.78,5.78,2,8.81.38,2.63-1.42,4.17-4.77,4.6-10a2.21,2.21,0,0,1,1.54-2.08A2,2,0,0,1,43.78,40.61Z" transform="translate(-3.14 -1.77)" style="fill:#1e1e1c"/><path d="M23.1,59.54c-2.24,0-4.06,2.26-4.06,5s1.82,5,4.06,5Z" transform="translate(-3.14 -1.77)" style="fill:#facbbd"/><path d="M103.73,59.54c2.24,0,4,2.26,4,5s-1.81,5-4,5Z" transform="translate(-3.14 -1.77)" style="fill:#facbbd"/><path d="M106.24,57.68l-2.18-3.09-7.49,5.28a.47.47,0,0,0-.35-.18H70a.47.47,0,0,0-.46.46v4.16H57.37V60.88a.46.46,0,0,0-.46-.45H31.71l-6.85-4.84-2.18,3.09L30.25,64v5.14A7.81,7.81,0,0,0,38.06,77H49.55a7.82,7.82,0,0,0,7.75-6.86H69.74a7.82,7.82,0,0,0,7.63,6.12H88.86a7.82,7.82,0,0,0,7.82-7.81v-4Z" transform="translate(-3.14 -1.77)" style="fill:#1e1e1c"/><path d="M104.42,93.65l-2.94-13.27a1.16,1.16,0,0,0-1.87-.65c-2.25,1.89-8,4.24-22.38.82-6.24-1.49-14-2-24.45-.53C43,81.41,34.47,84.69,26.94,78.87a1.16,1.16,0,0,0-1.87.68L22.27,93.9a1.14,1.14,0,0,0,.81,1.33,17.23,17.23,0,0,1,3,1.11c2.14,1.38,3.1,2.45,2.45,9.42a4,4,0,0,0,2,3.86c6.35,3.61,23.78,13.46,32.92,12.85,13.31-.89,30.27-11.39,33.7-13.6a1.13,1.13,0,0,0,.53-1.1c-.28-2.51-.71-11,5.87-12.75A1.17,1.17,0,0,0,104.42,93.65Zm-24.1-.07A41.36,41.36,0,0,1,63.94,97,42.18,42.18,0,0,1,47.42,93.6a1.5,1.5,0,0,1-.71-2.09l0,.07,0-.08a1.5,1.5,0,0,1,1.91-.66,39.55,39.55,0,0,0,30.51,0,1.5,1.5,0,1,1,1.18,2.75Z" transform="translate(-3.14 -1.77)" style="fill:#ea5451"/><path d="M7.8,51.58S7.46,33.38,22.17,32a.39.39,0,0,1,.37.55c-.71,1.62-1.53,6.36-1.46,12.22a.93.93,0,0,1-.6.92C18.13,46.46,9.86,49.43,7.8,51.58Z" transform="translate(-3.14 -1.77)" style="fill:#fccc82"/><path d="M120.53,51.58s.34-18.2-14.37-19.62a.39.39,0,0,0-.37.55c.71,1.62,1.53,6.36,1.46,12.22a.93.93,0,0,0,.6.92C110.2,46.46,118.47,49.43,120.53,51.58Z" transform="translate(-3.14 -1.77)" style="fill:#fccc82"/></svg>