<svg xmlns="http://www.w3.org/2000/svg" viewBox="0 0 70 70"><path d="M9.36,52l0-34.15H60.56l0-5.62H9.51A5.79,5.79,0,0,0,3.72,18V52a5.79,5.79,0,0,0,5.79,5.79H20.64V52Z" fill="#666"/><path d="M62.69,23.5H47a3.58,3.58,0,0,0-3.58,3.58V54.22A3.58,3.58,0,0,0,47,57.81h15.7a3.59,3.59,0,0,0,3.59-3.59V27.08A3.58,3.58,0,0,0,62.69,23.5ZM60.59,52H49.2V29.3H60.59Z" fill="#666"/><path d="M37.71,40V35H26.44V39.8a8.58,8.58,0,0,0,0,13.14v4.87H37.71V52.74a8.54,8.54,0,0,0,0-12.74ZM32,50.44A4.06,4.06,0,1,1,36,46.38,4.06,4.06,0,0,1,32,50.44Z" fill="#666"/></svg>